<svg xmlns="http://www.w3.org/2000/svg" xmlns:xlink="http://www.w3.org/1999/xlink" width="219.901" height="68.725" viewBox="0 0 219.901 68.725">
  <defs>
    <clipPath id="clip-path">
      <rect id="Rectángulo_11" data-name="Rectángulo 11" width="68.725" height="68.725" fill="none"/>
    </clipPath>
    <clipPath id="clip-path-3">
      <rect id="Rectángulo_9" data-name="Rectángulo 9" width="56.438" height="53.789" fill="none"/>
    </clipPath>
    <clipPath id="clip-path-4">
      <path id="Trazado_13" data-name="Trazado 13" d="M90.726,86.879V63.042L78.4,41.692a.191.191,0,0,1-.035.02l-1.4,3.635c-.468-.042-.943-.065-1.422-.065a15.818,15.818,0,0,0-15.7,13.895H71.681V63.06H59.853A15.818,15.818,0,0,0,75.547,76.914c.48,0,.954-.023,1.422-.065l1.414,3.681a19.649,19.649,0,0,1-22.014-15.2A19.649,19.649,0,0,1,34.35,80.551l.018-.046c-.022,0-.044.008-.067.014l8.632,14.95H82.137a8.59,8.59,0,0,0,8.59-8.59" transform="translate(-34.3 -41.692)" fill="none"/>
    </clipPath>
    <linearGradient id="linear-gradient" x1="-0.021" y1="0.847" x2="-0.016" y2="0.847" gradientUnits="objectBoundingBox">
      <stop offset="0" stop-color="#fff"/>
      <stop offset="1" stop-color="#231f20"/>
    </linearGradient>
    <clipPath id="clip-path-5">
      <rect id="Rectángulo_13" data-name="Rectángulo 13" width="140.375" height="16.713" transform="translate(0 0)" fill="none"/>
    </clipPath>
  </defs>
  <g id="Grupo_21" data-name="Grupo 21" transform="translate(-41 -978)">
    <g id="Grupo_18" data-name="Grupo 18" transform="translate(41 978)">
      <g id="Grupo_17" data-name="Grupo 17" clip-path="url(#clip-path)">
        <g id="Grupo_16" data-name="Grupo 16">
          <g id="Grupo_15" data-name="Grupo 15" clip-path="url(#clip-path)">
            <path id="Trazado_12" data-name="Trazado 12" d="M68.72,60.13a8.59,8.59,0,0,1-8.59,8.59H8.59A8.59,8.59,0,0,1,0,60.13V8.59A8.59,8.59,0,0,1,8.59,0H60.13a8.59,8.59,0,0,1,8.59,8.59Zm-15.18-9.965A15.818,15.818,0,0,1,37.846,36.312H49.675V32.429H37.842a15.818,15.818,0,0,1,15.7-13.895c.48,0,.953.023,1.422.064l1.414-3.681A19.651,19.651,0,0,0,34.358,30.142a19.649,19.649,0,0,0-22.014-15.2l1.414,3.68c.468-.042.943-.064,1.422-.064a15.818,15.818,0,0,1,15.7,13.874H19.045v3.883H30.876a15.818,15.818,0,0,1-15.7,13.874c-.479,0-.953-.023-1.422-.064L12.344,53.8A19.651,19.651,0,0,0,34.362,38.578a19.648,19.648,0,0,0,22.014,15.2L54.963,50.1c-.468.042-.942.065-1.422.065" fill="#e22517"/>
            <g id="Grupo_14" data-name="Grupo 14" transform="translate(12.287 14.936)" opacity="0.3" style="mix-blend-mode: multiply;isolation: isolate">
              <g id="Grupo_13" data-name="Grupo 13">
                <g id="Grupo_12" data-name="Grupo 12" clip-path="url(#clip-path-3)">
                  <g id="Grupo_11" data-name="Grupo 11" transform="translate(0.007 0.007)">
                    <g id="Grupo_10" data-name="Grupo 10" clip-path="url(#clip-path-4)">
                      <rect id="Rectángulo_8" data-name="Rectángulo 8" width="77.792" height="77.466" transform="matrix(0.766, -0.643, 0.643, 0.766, -26.48, 22.219)" fill="url(#linear-gradient)"/>
                    </g>
                  </g>
                  <path id="Trazado_14" data-name="Trazado 14" d="M90.726,86.878V63.041L78.4,41.691a.159.159,0,0,1-.035.021l-1.4,3.635c-.468-.042-.943-.065-1.422-.065a15.818,15.818,0,0,0-15.7,13.895H71.681v3.882H59.853A15.818,15.818,0,0,0,75.547,76.913c.48,0,.954-.023,1.422-.064l1.414,3.681a19.649,19.649,0,0,1-22.014-15.2A19.649,19.649,0,0,1,34.35,80.55l.018-.046-.067.013,8.632,14.95H82.137A8.59,8.59,0,0,0,90.726,86.878Z" transform="translate(-34.293 -41.684)" fill="none" stroke="#fff" stroke-width="0.027"/>
                </g>
              </g>
            </g>
          </g>
        </g>
      </g>
    </g>
    <g id="Grupo_20" data-name="Grupo 20" transform="translate(120.526 1004.432)">
      <g id="Grupo_19" data-name="Grupo 19" transform="translate(0 0)" clip-path="url(#clip-path-5)">
        <path id="Trazado_15" data-name="Trazado 15" d="M1.671,11.7V0H0V11.7a5.014,5.014,0,0,0,5.014,5.014h11.7V15.042H5.014A3.342,3.342,0,0,1,1.671,11.7" transform="translate(0 0)" fill="#e22517"/>
        <path id="Trazado_16" data-name="Trazado 16" d="M61.915.015V0H48.24V1.671H61.611a3.343,3.343,0,0,1,3.343,3.343V6.685H51.279V6.7a5.007,5.007,0,0,0,0,10v.016H61.915V16.7a5.01,5.01,0,0,0,4.71-5V5.014a5.01,5.01,0,0,0-4.71-5m-.3,15.027H51.583a3.343,3.343,0,1,1,0-6.685H64.953V11.7a3.343,3.343,0,0,1-3.343,3.342" transform="translate(-26.513 0)" fill="#e22517"/>
        <path id="Trazado_17" data-name="Trazado 17" d="M279.234.015V0H265.559V1.671H278.93a3.343,3.343,0,0,1,3.342,3.343V6.685H268.6V6.7a5.007,5.007,0,0,0,0,10v.016h10.636V16.7a5.01,5.01,0,0,0,4.71-5V5.014a5.01,5.01,0,0,0-4.71-5m-.3,15.027H268.9a3.343,3.343,0,1,1,0-6.685h13.37V11.7a3.343,3.343,0,0,1-3.342,3.342" transform="translate(-150.239 0)" fill="#e22517"/>
        <path id="Trazado_18" data-name="Trazado 18" d="M170.575,8.357V8.335a4.174,4.174,0,0,0,0-8.313V0H159.939V.016a5.01,5.01,0,0,0-4.71,5V11.7a5.01,5.01,0,0,0,4.71,5v.015h13.674V15.042H160.243A3.343,3.343,0,0,1,156.9,11.7V8.357ZM160.243,1.671h9.985v0a2.505,2.505,0,0,1,0,5.01v0H156.9V5.014a3.343,3.343,0,0,1,3.342-3.342" transform="translate(-88.376 0)" fill="#e22517"/>
        <path id="Trazado_19" data-name="Trazado 19" d="M112.541,5.014v11.7h1.671V8.356h11.7V6.685h-11.7V5.014a3.343,3.343,0,0,1,3.342-3.342h10.028V0H117.555a5.014,5.014,0,0,0-5.014,5.014" transform="translate(-64.073 0)" fill="#e22517"/>
        <rect id="Rectángulo_12" data-name="Rectángulo 12" width="1.671" height="16.713" transform="translate(108.635 0)" fill="#e22517"/>
        <path id="Trazado_20" data-name="Trazado 20" d="M209.559,5.014v11.7h1.671V5.014a3.343,3.343,0,0,1,3.342-3.342H224.6V0H214.573a5.014,5.014,0,0,0-5.014,5.014" transform="translate(-119.308 0)" fill="#e22517"/>
        <path id="Trazado_21" data-name="Trazado 21" d="M318.928,1.139a2.39,2.39,0,0,0-1.07-.921A2.444,2.444,0,0,0,316.812,0a2.4,2.4,0,0,0-1.569.578,2.465,2.465,0,0,0-.668.861,2.346,2.346,0,0,0-.237,1.058,2.431,2.431,0,0,0,.73,1.782,2.5,2.5,0,0,0,3.538,0,2.427,2.427,0,0,0,.73-1.779,2.47,2.47,0,0,0-.409-1.363m-.609,2.886a2.062,2.062,0,0,1-2.964,0A2.11,2.11,0,0,1,314.74,2.5a2.088,2.088,0,0,1,.615-1.5,1.973,1.973,0,0,1,1.467-.63,2.084,2.084,0,0,1,1.239.393,2.01,2.01,0,0,1,.63.758,2.3,2.3,0,0,1,.24.986,2.108,2.108,0,0,1-.612,1.523" transform="translate(-178.962 0)" fill="#e22517"/>
        <path id="Trazado_22" data-name="Trazado 22" d="M319.238,4.139a.788.788,0,0,0,.421-.3.844.844,0,0,0,.165-.5.8.8,0,0,0-.309-.652,1.446,1.446,0,0,0-.883-.215h-.577V5.359h.552V4.214l.858,1.145h.674L319.2,4.152Zm-.54-.387H318.6V2.963h.112q.574,0,.574.381,0,.409-.593.409" transform="translate(-181.078 -1.406)" fill="#e22517"/>
      </g>
    </g>
  </g>
</svg>
