<svg xmlns="http://www.w3.org/2000/svg" xmlns:xlink="http://www.w3.org/1999/xlink" id="Layer_1" x="0px" y="0px" viewBox="0 0 500 152.6" style="enable-background:new 0 0 500 152.6;" xml:space="preserve">
<style type="text/css">
	.st0{fill:#ED1C24;}
	.st1{fill:#FFFFFF;}
	.st2{fill:url(#SVGID_1_);}
	.st3{fill:#EB0000;}
</style>
<path class="st0" d="M139.8,124.4c0,9-7.3,16.3-16.3,16.3H25.6c-9,0-16.3-7.3-16.3-16.3V26.5c0-9,7.3-16.3,16.3-16.3h97.9  c9,0,16.3,7.3,16.3,16.3V124.4z"></path>
<path class="st1" d="M111,105.5c-15.3,0-28-11.5-29.8-26.3h22.5v-7.4H81.2C83,56.9,95.6,45.4,111,45.4c0.9,0,1.8,0,2.7,0.1l2.7-7  c-1.8-0.3-3.6-0.4-5.4-0.4c-17.9,0-32.8,12.5-36.4,29.3C70.9,50.7,56,38.2,38.1,38.2c-1.8,0-3.6,0.1-5.4,0.4l2.7,7  c0.9-0.1,1.8-0.1,2.7-0.1c15.3,0,28,11.5,29.8,26.4H45.5v7.4h22.5c-1.8,14.9-14.5,26.4-29.8,26.4c-0.9,0-1.8,0-2.7-0.1l-2.7,7  c1.8,0.3,3.6,0.4,5.4,0.4c17.9,0,32.8-12.5,36.4-29.3c3.7,16.7,18.6,29.3,36.4,29.3c1.8,0,3.6-0.1,5.4-0.4l-2.7-7  C112.8,105.4,111.9,105.5,111,105.5z"></path>
<linearGradient id="SVGID_1_" gradientUnits="userSpaceOnUse" x1="127.1879" y1="142.6423" x2="68.1008" y2="72.225">
	<stop offset="0" style="stop-color:#ED1C24"></stop>
	<stop offset="1" style="stop-color:#AD1C24"></stop>
</linearGradient>
<path class="st2" d="M139.8,124.4V79.1l-23.4-40.6c0,0,0,0-0.1,0l-2.7,6.9c-0.9-0.1-1.8-0.1-2.7-0.1c-15.4,0-28,11.5-29.8,26.4h22.5  v7.4H81.2C83,94,95.7,105.5,111,105.5c0.9,0,1.8,0,2.7-0.1l2.7,7c-1.8,0.3-3.6,0.4-5.4,0.4c-17.8,0-32.8-12.5-36.4-29.3  c-3.7,16.8-18.6,29.3-36.4,29.3c-1.8,0-3.6-0.1-5.4-0.4l0-0.1c0,0-0.1,0-0.1,0L49,140.7h74.5C132.5,140.7,139.8,133.4,139.8,124.4z"></path>
<g>
	
		<rect x="220.7" y="41.9" transform="matrix(-1.836970e-16 1 -1 -1.836970e-16 280.5144 -164.7916)" class="st0" width="3.9" height="32"></rect>
	
		<rect x="333.8" y="45.4" transform="matrix(6.123234e-17 -1 1 6.123234e-17 277.8967 393.6194)" class="st0" width="3.9" height="24.9"></rect>
	
		<rect x="290.8" y="46.1" transform="matrix(-2.975505e-11 1 -1 -2.975505e-11 350.5826 -234.8598)" class="st0" width="3.9" height="23.5"></rect>
	
		<rect x="388.6" y="46.1" transform="matrix(-3.254482e-11 1 -1 -3.254482e-11 448.3935 -332.6708)" class="st0" width="3.9" height="23.5"></rect>
	<rect x="155.8" y="55.9" class="st3" width="3.9" height="27.4"></rect>
	<rect x="245.8" y="67.6" class="st0" width="3.9" height="15.6"></rect>
	
		<rect x="179.3" y="79.4" transform="matrix(-1.836970e-16 1 -1 -1.836970e-16 274.29 -88.1434)" class="st0" width="3.9" height="27.4"></rect>
	
		<rect x="224.3" y="80.6" transform="matrix(-1.836970e-16 1 -1 -1.836970e-16 319.2831 -133.1364)" class="st0" width="3.9" height="24.9"></rect>
	
		<rect x="227.8" y="57.5" transform="matrix(-1.836970e-16 1 -1 -1.836970e-16 303.2776 -156.2554)" class="st0" width="3.9" height="32"></rect>
	<path class="st0" d="M206.6,83.3c0-4.3,3.5-7.8,7.8-7.8v-3.9c-6.5,0-11.7,5.3-11.7,11.7S208,95,214.5,95v-3.9   C210.2,91.1,206.6,87.6,206.6,83.3z"></path>
	<path class="st0" d="M167.5,91.1c-4.3,0-7.8-3.5-7.8-7.8h-3.9c0,6.5,5.3,11.7,11.7,11.7V91.1z"></path>
	<path class="st0" d="M245.8,83.3c0,4.3-3.5,7.8-7.8,7.8V95c6.5,0,11.7-5.3,11.7-11.7H245.8z"></path>
	<path class="st0" d="M237.9,59.8c4.3,0,7.8,3.5,7.8,7.8h3.9c0-6.5-5.3-11.7-11.7-11.7V59.8z"></path>
	
		<rect x="439.8" y="41.9" transform="matrix(-1.836970e-16 1 -1 -1.836970e-16 499.6109 -383.8882)" class="st0" width="3.9" height="32"></rect>
	<rect x="464.9" y="67.6" class="st0" width="3.9" height="15.6"></rect>
	
		<rect x="443.4" y="80.6" transform="matrix(-1.836970e-16 1 -1 -1.836970e-16 538.3796 -352.233)" class="st0" width="3.9" height="24.9"></rect>
	
		<rect x="446.9" y="57.5" transform="matrix(-1.836970e-16 1 -1 -1.836970e-16 522.3741 -375.3519)" class="st0" width="3.9" height="32"></rect>
	<path class="st0" d="M425.7,83.3c0-4.3,3.5-7.8,7.8-7.8v-3.9c-6.5,0-11.7,5.3-11.7,11.7S427.1,95,433.6,95v-3.9   C429.2,91.1,425.7,87.6,425.7,83.3z"></path>
	<path class="st0" d="M464.9,83.3c0,4.3-3.5,7.8-7.8,7.8V95c6.5,0,11.7-5.3,11.7-11.7H464.9z"></path>
	<path class="st0" d="M457,59.8c4.3,0,7.8,3.5,7.8,7.8h3.9c0-6.5-5.3-11.7-11.7-11.7V59.8z"></path>
	
		<rect x="312.3" y="67.6" transform="matrix(-1 -1.224647e-16 1.224647e-16 -1 628.4792 150.9347)" class="st0" width="3.9" height="15.6"></rect>
	
		<rect x="330.2" y="57.5" transform="matrix(6.123234e-17 -1 1 6.123234e-17 258.6902 405.7124)" class="st0" width="3.9" height="32"></rect>
	
		<rect x="337.4" y="77.1" transform="matrix(6.123234e-17 -1 1 6.123234e-17 246.2415 432.3881)" class="st0" width="3.9" height="32"></rect>
	<path class="st0" d="M316.2,67.6c0-4.3,3.5-7.8,7.8-7.8v-3.9c-6.5,0-11.7,5.3-11.7,11.7H316.2z"></path>
	<path class="st0" d="M324,91.1c-4.3,0-7.8-3.5-7.8-7.8h-3.9c0,6.5,5.3,11.7,11.7,11.7V91.1z"></path>
	
		<rect x="269.2" y="67.6" transform="matrix(-1 -8.136215e-11 8.136215e-11 -1 542.4056 162.672)" class="st0" width="3.9" height="27.4"></rect>
	
		<rect x="284.9" y="59.8" transform="matrix(-3.254482e-11 1 -1 -3.254482e-11 360.3637 -213.3414)" class="st0" width="3.9" height="27.4"></rect>
	<path class="st0" d="M281,59.8c-4.3,0-7.8,3.5-7.8,7.8h-3.9c0-6.5,5.3-11.7,11.7-11.7V59.8z"></path>
	
		<rect x="367.1" y="67.6" transform="matrix(-1 -8.136215e-11 8.136215e-11 -1 738.0275 162.672)" class="st0" width="3.9" height="27.4"></rect>
	
		<rect x="410.1" y="55.9" transform="matrix(-1 -1.139068e-10 1.139068e-10 -1 824.1011 150.9347)" class="st0" width="3.9" height="39.1"></rect>
	<path class="st0" d="M378.8,59.8c-4.3,0-7.8,3.5-7.8,7.8h-3.9c0-6.5,5.3-11.7,11.7-11.7V59.8z"></path>
	<path class="st0" d="M347.4,55.9v3.9c3.2,0.1,5.8,2.7,5.8,5.9c0,3.2-2.6,5.8-5.8,5.9v3.9c5.4-0.1,9.7-4.4,9.7-9.8   C357.1,60.3,352.8,56,347.4,55.9z"></path>
	<g>
		<path class="st0" d="M484.4,61.8c0,1.6-0.6,3-1.7,4.2c-1.1,1.1-2.5,1.7-4.1,1.7c-1.6,0-3-0.6-4.1-1.7c-1.1-1.1-1.7-2.5-1.7-4.2    c0-0.9,0.2-1.7,0.6-2.5c0.4-0.8,0.9-1.5,1.6-2c1.1-0.9,2.3-1.4,3.7-1.4c0.9,0,1.7,0.2,2.4,0.5c1,0.5,1.9,1.2,2.5,2.2    C484.1,59.6,484.4,60.6,484.4,61.8z M478.5,56.8c-1.3,0-2.5,0.5-3.4,1.5c-1,1-1.4,2.2-1.4,3.5c0,1.4,0.5,2.6,1.4,3.6    c1,1,2.1,1.5,3.5,1.5c1.3,0,2.5-0.5,3.5-1.5c1-1,1.4-2.2,1.4-3.6c0-0.7-0.2-1.5-0.6-2.3c-0.4-0.7-0.9-1.3-1.5-1.8    C480.5,57.1,479.6,56.8,478.5,56.8z M479.1,62.3l2.2,2.8h-1.6l-2-2.7v2.7h-1.3v-6.8h1.4c0.9,0,1.6,0.2,2.1,0.5    c0.5,0.4,0.7,0.9,0.7,1.5c0,0.4-0.1,0.8-0.4,1.2C479.9,62,479.6,62.2,479.1,62.3L479.1,62.3z M477.7,61.4h0.2c0.9,0,1.4-0.3,1.4-1    c0-0.6-0.4-0.9-1.3-0.9h-0.3V61.4z"></path>
	</g>
</g>
</svg>